<svg width="27" height="30" viewBox="0 0 27 30" fill="none" xmlns="http://www.w3.org/2000/svg">
<path d="M7.76604 1.5C7.76604 3.00755 8.37015 4.45335 9.44548 5.51934C10.5208 6.58534 11.9793 7.18421 13.5 7.18421C15.0207 7.18421 16.4792 6.58534 17.5545 5.51934C18.6299 4.45335 19.234 3.00755 19.234 1.5M2.03208 2.92105H3.46557M23.5344 2.92105H24.9679M13.5 11.4474V12.8684M20.9542 8.88947L21.9676 9.89416M6.04585 8.88947L5.04241 9.88421M2.03208 22.8158H24.9679M10.633 17.1316L9.19953 28.5M16.367 17.1316L17.8005 28.5M2.43345 28.5H24.5665C24.7844 28.5 24.9995 28.4507 25.1953 28.356C25.3911 28.2612 25.5626 28.1235 25.6966 27.9532C25.8307 27.7829 25.9238 27.5846 25.9689 27.3732C26.0141 27.1619 26.01 26.9432 25.957 26.7336L23.8068 18.2073C23.7291 17.9 23.5501 17.6273 23.2982 17.4324C23.0463 17.2375 22.7359 17.1316 22.4163 17.1316H4.58369C4.26412 17.1316 3.95372 17.2375 3.70179 17.4324C3.44987 17.6273 3.27086 17.9 3.1932 18.2073L1.04297 26.7336C0.990018 26.9432 0.985951 27.1619 1.03108 27.3732C1.0762 27.5846 1.16933 27.7829 1.30338 27.9532C1.43744 28.1235 1.60889 28.2612 1.80471 28.356C2.00052 28.4507 2.21555 28.5 2.43345 28.5Z" stroke="white" stroke-width="2" stroke-linecap="round" stroke-linejoin="round"/>
</svg>
